<svg width="98" height="33" viewBox="0 0 98 33" fill="none" xmlns="http://www.w3.org/2000/svg">
<rect x="3.25" y="3.25" width="94.5" height="29.5" rx="14.75" fill="white" stroke="#012F76" stroke-width="0.5"/>
<circle cx="13.5" cy="29.5" r="1.5" fill="#003078"/>
<circle cx="18.5" cy="29.5" r="1.5" fill="#003078"/>
<circle cx="23.5" cy="29.5" r="1.5" fill="#003078"/>
<circle cx="28.5" cy="29.5" r="1.5" fill="#003078"/>
<circle cx="33.5" cy="29.5" r="1.5" fill="#003078"/>
<circle cx="38.5" cy="29.5" r="1.5" fill="#003078"/>
<circle cx="43.5" cy="29.5" r="1.5" fill="#003078"/>
<circle cx="48.5" cy="29.5" r="1.5" fill="#003078"/>
<circle cx="53.5" cy="29.5" r="1.5" fill="#003078"/>
<circle cx="58.5" cy="29.5" r="1.5" fill="#003078"/>
<circle cx="63.5" cy="29.5" r="1.5" fill="#003078"/>
<circle cx="68.5" cy="29.5" r="1.5" fill="#003078"/>
<circle cx="73.5" cy="29.5" r="1.5" fill="#003078"/>
<circle cx="78.5" cy="29.5" r="1.5" fill="#003078"/>
<circle cx="83.5" cy="29.5" r="1.5" fill="#003078"/>
<circle cx="84.5" cy="25.5" r="1.5" fill="#003078"/>
<circle cx="88.5" cy="29.5" r="1.5" fill="#003078"/>
<circle cx="89.5" cy="25.5" r="1.5" fill="#003078"/>
<circle cx="90.5" cy="21.5" r="1.5" fill="#003078"/>
<circle cx="95.5" cy="21.5" r="1.5" fill="#003078"/>
<circle cx="91.5" cy="17.5" r="1.5" fill="#003078"/>
<circle cx="86.5" cy="17.5" r="1.5" fill="#003078"/>
<circle cx="92.5" cy="13.5" r="1.5" fill="#003078"/>
<circle cx="93.5" cy="9.5" r="1.5" fill="#003078"/>
<circle cx="87.5" cy="13.5" r="1.5" fill="#003078"/>
<circle cx="88.5" cy="9.5" r="1.5" fill="#003078"/>
<circle cx="96.5" cy="17.5" r="1.5" fill="#003078"/>
<circle cx="85.5" cy="21.5" r="1.5" fill="#003078"/>
<mask id="mask0_8_25" style="mask-type:alpha" maskUnits="userSpaceOnUse" x="3" y="3" width="95" height="30">
<rect x="3.25" y="3.25" width="94.5" height="29.5" rx="14.75" fill="white" stroke="#012F76" stroke-width="0.5"/>
</mask>
<g mask="url(#mask0_8_25)">
<circle cx="94.5" cy="25.5" r="1.5" fill="#003078"/>
<circle cx="97.5" cy="13.5" r="1.5" fill="#003078"/>
<circle cx="89.5" cy="5.5" r="1.5" fill="#003078"/>
<circle cx="93.5" cy="29.5" r="1.5" fill="#003078"/>
<circle cx="8.5" cy="29.5" r="1.5" fill="#003078"/>
<circle cx="10.5" cy="31.5" r="0.5" fill="#003078"/>
</g>
<circle cx="15.5" cy="31.5" r="0.5" fill="#003078"/>
<circle cx="20.5" cy="31.5" r="0.5" fill="#003078"/>
<circle cx="25.5" cy="31.5" r="0.5" fill="#003078"/>
<circle cx="30.5" cy="31.5" r="0.5" fill="#003078"/>
<circle cx="35.5" cy="31.5" r="0.5" fill="#003078"/>
<circle cx="40.5" cy="31.5" r="0.5" fill="#003078"/>
<circle cx="45.5" cy="31.5" r="0.5" fill="#003078"/>
<circle cx="50.5" cy="31.5" r="0.5" fill="#003078"/>
<circle cx="55.5" cy="31.5" r="0.5" fill="#003078"/>
<circle cx="60.5" cy="31.5" r="0.5" fill="#003078"/>
<circle cx="65.5" cy="31.5" r="0.5" fill="#003078"/>
<circle cx="70.5" cy="31.5" r="0.5" fill="#003078"/>
<circle cx="75.5" cy="31.5" r="0.5" fill="#003078"/>
<circle cx="80.5" cy="31.5" r="0.5" fill="#003078"/>
<circle cx="85.5" cy="31.5" r="0.5" fill="#003078"/>
<circle cx="91.5" cy="27.5" r="0.5" fill="#003078"/>
<circle cx="86.5" cy="27.5" r="0.5" fill="#003078"/>
<circle cx="87.5" cy="23.5" r="0.5" fill="#003078"/>
<circle cx="88.5" cy="19.5" r="0.5" fill="#003078"/>
<circle cx="89.5" cy="15.5" r="0.5" fill="#003078"/>
<circle cx="90.5" cy="11.5" r="0.5" fill="#003078"/>
<circle cx="91.5" cy="7.5" r="0.5" fill="#003078"/>
<circle cx="95.5" cy="11.5" r="0.5" fill="#003078"/>
<circle cx="94.5" cy="15.5" r="0.5" fill="#003078"/>
<circle cx="93.5" cy="19.5" r="0.5" fill="#003078"/>
<circle cx="92.5" cy="23.5" r="0.5" fill="#003078"/>
<circle cx="81.5" cy="27.5" r="0.5" fill="#003078"/>
<rect width="95" height="30" rx="15" fill="#012F76"/>
<path d="M13.261 20V10.419H14.769V18.713H18.825V20H13.261ZM23.1415 20.182C22.4915 20.182 21.9022 20.0347 21.3735 19.74C20.8448 19.4367 20.4245 19.0077 20.1125 18.453C19.8005 17.8897 19.6445 17.2137 19.6445 16.425C19.6445 15.8443 19.7355 15.3243 19.9175 14.865C20.0995 14.397 20.3465 14.0027 20.6585 13.682C20.9705 13.3527 21.3215 13.1013 21.7115 12.928C22.1015 12.7547 22.5002 12.668 22.9075 12.668C23.5402 12.668 24.0732 12.811 24.5065 13.097C24.9398 13.3743 25.2692 13.7687 25.4945 14.28C25.7198 14.7827 25.8325 15.372 25.8325 16.048C25.8325 16.1953 25.8238 16.3383 25.8065 16.477C25.7978 16.607 25.7805 16.7197 25.7545 16.815H21.1135C21.1568 17.2657 21.2738 17.6557 21.4645 17.985C21.6638 18.3057 21.9195 18.557 22.2315 18.739C22.5522 18.9123 22.9162 18.999 23.3235 18.999C23.6442 18.999 23.9432 18.9513 24.2205 18.856C24.4978 18.7607 24.7665 18.6307 25.0265 18.466L25.5465 19.415C25.2172 19.6317 24.8488 19.8137 24.4415 19.961C24.0428 20.1083 23.6095 20.182 23.1415 20.182ZM21.1005 15.775H24.5325C24.5325 15.1683 24.3938 14.696 24.1165 14.358C23.8478 14.02 23.4535 13.851 22.9335 13.851C22.6388 13.851 22.3615 13.9247 22.1015 14.072C21.8415 14.2193 21.6205 14.436 21.4385 14.722C21.2652 15.008 21.1525 15.359 21.1005 15.775ZM28.9509 20.182C28.5435 20.182 28.1795 20.0953 27.8589 19.922C27.5469 19.7487 27.2999 19.506 27.1179 19.194C26.9359 18.882 26.8449 18.518 26.8449 18.102C26.8449 17.3307 27.1829 16.737 27.8589 16.321C28.5435 15.8963 29.6312 15.6017 31.1219 15.437C31.1132 15.1597 31.0699 14.904 30.9919 14.67C30.9139 14.436 30.7752 14.2497 30.5759 14.111C30.3852 13.9637 30.1122 13.89 29.7569 13.89C29.3842 13.89 29.0245 13.9637 28.6779 14.111C28.3312 14.2583 28.0019 14.4273 27.6899 14.618L27.1309 13.604C27.3822 13.448 27.6595 13.3007 27.9629 13.162C28.2662 13.0147 28.5912 12.8977 28.9379 12.811C29.2845 12.7157 29.6442 12.668 30.0169 12.668C30.6149 12.668 31.1045 12.7893 31.4859 13.032C31.8672 13.266 32.1489 13.6083 32.3309 14.059C32.5215 14.5097 32.6169 15.0557 32.6169 15.697V20H31.3949L31.2779 19.181H31.2259C30.9052 19.4583 30.5542 19.6967 30.1729 19.896C29.7915 20.0867 29.3842 20.182 28.9509 20.182ZM29.4059 18.986C29.7179 18.986 30.0082 18.9167 30.2769 18.778C30.5455 18.6307 30.8272 18.4183 31.1219 18.141V16.399C30.4199 16.477 29.8609 16.594 29.4449 16.75C29.0289 16.8973 28.7299 17.075 28.5479 17.283C28.3745 17.4823 28.2879 17.7163 28.2879 17.985C28.2879 18.3403 28.3962 18.596 28.6129 18.752C28.8295 18.908 29.0939 18.986 29.4059 18.986ZM34.7384 20V12.837H35.9604L36.0904 14.124H36.1164C36.3764 13.6647 36.6841 13.3093 37.0394 13.058C37.3948 12.798 37.7674 12.668 38.1574 12.668C38.3308 12.668 38.4781 12.681 38.5994 12.707C38.7208 12.733 38.8378 12.7677 38.9504 12.811L38.6904 14.124C38.5604 14.0807 38.4434 14.0503 38.3394 14.033C38.2354 14.0157 38.1098 14.007 37.9624 14.007C37.6764 14.007 37.3731 14.124 37.0524 14.358C36.7318 14.5833 36.4588 14.982 36.2334 15.554V20H34.7384ZM40.0578 20V12.837H41.2798L41.4098 13.838H41.4358C41.7651 13.5173 42.1204 13.2443 42.5018 13.019C42.8831 12.785 43.3164 12.668 43.8018 12.668C44.5644 12.668 45.1191 12.915 45.4658 13.409C45.8211 13.8943 45.9988 14.592 45.9988 15.502V20H44.5038V15.684C44.5038 15.0687 44.4084 14.631 44.2178 14.371C44.0271 14.1023 43.7194 13.968 43.2948 13.968C42.9654 13.968 42.6708 14.0503 42.4108 14.215C42.1594 14.371 41.8734 14.6093 41.5528 14.93V20H40.0578ZM51.09 20V12.837H52.312L52.442 13.851H52.468C52.78 13.5217 53.1137 13.2443 53.469 13.019C53.833 12.785 54.2403 12.668 54.691 12.668C55.2197 12.668 55.64 12.785 55.952 13.019C56.264 13.2443 56.498 13.565 56.654 13.981C57.0093 13.5997 57.3733 13.2877 57.746 13.045C58.1273 12.7937 58.539 12.668 58.981 12.668C59.7263 12.668 60.2767 12.915 60.632 13.409C60.996 13.8943 61.178 14.592 61.178 15.502V20H59.67V15.684C59.67 15.0687 59.5747 14.631 59.384 14.371C59.1933 14.1023 58.8943 13.968 58.487 13.968C58.2443 13.968 57.9887 14.046 57.72 14.202C57.46 14.358 57.1783 14.6007 56.875 14.93V20H55.38V15.684C55.38 15.0687 55.2847 14.631 55.094 14.371C54.9033 14.1023 54.6 13.968 54.184 13.968C53.95 13.968 53.6987 14.046 53.43 14.202C53.1613 14.358 52.8797 14.6007 52.585 14.93V20H51.09ZM66.2267 20.182C65.6373 20.182 65.0827 20.0347 64.5627 19.74C64.0513 19.4367 63.6353 19.0077 63.3147 18.453C63.0027 17.8897 62.8467 17.2137 62.8467 16.425C62.8467 15.6277 63.0027 14.9517 63.3147 14.397C63.6353 13.8337 64.0513 13.4047 64.5627 13.11C65.0827 12.8153 65.6373 12.668 66.2267 12.668C66.66 12.668 67.0803 12.7547 67.4877 12.928C67.895 13.0927 68.2547 13.3353 68.5667 13.656C68.8787 13.9767 69.1257 14.371 69.3077 14.839C69.4897 15.2983 69.5807 15.827 69.5807 16.425C69.5807 17.2137 69.4203 17.8897 69.0997 18.453C68.7877 19.0077 68.376 19.4367 67.8647 19.74C67.362 20.0347 66.816 20.182 66.2267 20.182ZM66.2267 18.934C66.5993 18.934 66.92 18.83 67.1887 18.622C67.466 18.414 67.6783 18.1237 67.8257 17.751C67.973 17.3697 68.0467 16.9277 68.0467 16.425C68.0467 15.9223 67.973 15.4847 67.8257 15.112C67.6783 14.7307 67.466 14.436 67.1887 14.228C66.92 14.0113 66.5993 13.903 66.2267 13.903C65.8453 13.903 65.516 14.0113 65.2387 14.228C64.97 14.436 64.762 14.7307 64.6147 15.112C64.4673 15.4847 64.3937 15.9223 64.3937 16.425C64.3937 16.9277 64.4673 17.3697 64.6147 17.751C64.762 18.1237 64.97 18.414 65.2387 18.622C65.516 18.83 65.8453 18.934 66.2267 18.934ZM71.3517 20V12.837H72.5737L72.7037 14.124H72.7297C72.9897 13.6647 73.2974 13.3093 73.6527 13.058C74.008 12.798 74.3807 12.668 74.7707 12.668C74.944 12.668 75.0914 12.681 75.2127 12.707C75.334 12.733 75.451 12.7677 75.5637 12.811L75.3037 14.124C75.1737 14.0807 75.0567 14.0503 74.9527 14.033C74.8487 14.0157 74.723 14.007 74.5757 14.007C74.2897 14.007 73.9864 14.124 73.6657 14.358C73.345 14.5833 73.072 14.982 72.8467 15.554V20H71.3517ZM79.4579 20.182C78.8079 20.182 78.2186 20.0347 77.6899 19.74C77.1612 19.4367 76.7409 19.0077 76.4289 18.453C76.1169 17.8897 75.9609 17.2137 75.9609 16.425C75.9609 15.8443 76.0519 15.3243 76.2339 14.865C76.4159 14.397 76.6629 14.0027 76.9749 13.682C77.2869 13.3527 77.6379 13.1013 78.0279 12.928C78.4179 12.7547 78.8166 12.668 79.2239 12.668C79.8566 12.668 80.3896 12.811 80.8229 13.097C81.2562 13.3743 81.5856 13.7687 81.8109 14.28C82.0362 14.7827 82.1489 15.372 82.1489 16.048C82.1489 16.1953 82.1402 16.3383 82.1229 16.477C82.1142 16.607 82.0969 16.7197 82.0709 16.815H77.4299C77.4732 17.2657 77.5902 17.6557 77.7809 17.985C77.9802 18.3057 78.2359 18.557 78.5479 18.739C78.8686 18.9123 79.2326 18.999 79.6399 18.999C79.9606 18.999 80.2596 18.9513 80.5369 18.856C80.8142 18.7607 81.0829 18.6307 81.3429 18.466L81.8629 19.415C81.5336 19.6317 81.1652 19.8137 80.7579 19.961C80.3592 20.1083 79.9259 20.182 79.4579 20.182ZM77.4169 15.775H80.8489C80.8489 15.1683 80.7102 14.696 80.4329 14.358C80.1642 14.02 79.7699 13.851 79.2499 13.851C78.9552 13.851 78.6779 13.9247 78.4179 14.072C78.1579 14.2193 77.9369 14.436 77.7549 14.722C77.5816 15.008 77.4689 15.359 77.4169 15.775Z" fill="white"/>
</svg>
